<?xml version="1.0" encoding="UTF-8"?>
<svg width="348px" height="124px" viewBox="0 0 348 124" version="1.1" xmlns="http://www.w3.org/2000/svg" xmlns:xlink="http://www.w3.org/1999/xlink">
    <!-- Generator: Sketch 54.1 (76490) - https://sketchapp.com -->
    <title>logo</title>
    <desc>Created with Sketch.</desc>
    <g id="Symbols" stroke="none" stroke-width="1" fill="none" fill-rule="evenodd">
        <g id="logo/g-zero-copy" transform="translate(0.000000, -1.000000)" fill="#FFFFFF">
            <path d="M22.6851,30.0638 L8.9264,16.3051 L15.4594,9.7711 L29.2620328,23.5743715 L29.2561,11.0218 L38.4951,11.0168 L38.5081,39.3028 L10.2561,39.3028 L10.2561,30.0638 L22.6851,30.0638 Z M39.2395,77.6397 C28.7875,77.6397 18.9535,73.6967 11.5485,66.5357 C4.1015,59.3357 0.0005,49.7487 0.0005,39.5437 L9.2385,39.5437 C9.2385,55.4557 22.6975,68.4007 39.2395,68.4007 C55.7825,68.4007 69.2405,55.4557 69.2405,39.5437 C69.2405,23.6327 55.7825,10.6867 39.2395,10.6867 L39.2395,1.4487 C49.6915,1.4487 59.5255,5.3917 66.9305,12.5517 C74.3785,19.7527 78.4785,29.3387 78.4785,39.5437 C78.4785,49.7487 74.3785,59.3357 66.9305,66.5357 C59.5255,73.6967 49.6915,77.6397 39.2395,77.6397 Z M154.844,26.7579 L154.844,54.6439 L146.764,54.6439 L146.764,50.7379 C144.219,53.7999 140.177,55.8259 134.396,55.8259 C123.245,55.8259 116.186,48.0289 116.186,38.7909 L116.186,18.9199 C116.186,9.0599 123.542,0.9999 135.631,0.9999 C147.429,0.9999 154.486,8.7959 154.486,18.3039 L154.486,19.0579 L144.659,19.0579 L144.659,18.3039 C144.659,13.5159 141.342,9.5129 135.631,9.5129 C129.479,9.5129 126.047,13.7179 126.047,18.9539 L126.047,37.7909 C126.047,43.3779 129.527,47.3129 135.891,47.3129 C141.754,47.3129 145.77,44.1329 145.77,37.8239 L145.77,35.1149 L135.389,35.1149 L135.389,26.7579 L154.844,26.7579 Z M169.5569,28.2652 L169.5569,30.0262 L183.2839,30.0262 L183.2839,28.2812 C183.2839,24.4432 180.9079,21.4942 176.3539,21.4942 C171.9239,21.4942 169.5569,24.4432 169.5569,28.2652 Z M192.6359,41.3942 L192.6359,41.8132 C192.6359,49.6292 186.6449,55.6042 176.5589,55.6042 C166.5189,55.6042 160.5269,49.3412 160.5269,41.1232 L160.5269,28.1172 C160.5269,19.9492 166.4389,13.6362 176.3539,13.6362 C186.4379,13.6362 192.3139,19.9492 192.3139,28.1342 L192.3139,37.3022 L169.5569,37.3022 L169.5569,40.9752 C169.5569,44.8472 172.0039,47.7472 176.5589,47.7472 C181.0699,47.7472 183.6509,45.1342 183.6509,41.6992 L183.6509,41.3942 L192.6359,41.3942 Z M218.8255,13.6363 L218.8255,22.3883 L216.1305,22.3883 C210.8965,22.3883 207.3585,25.3793 207.3585,30.7843 L207.3585,54.6443 L198.3285,54.6443 L198.3285,14.5963 L206.5705,14.5963 L206.5705,19.1453 C208.7255,15.7413 212.2635,13.6363 217.3215,13.6363 L218.8255,13.6363 Z M273.3694,54.6441 L264.3844,54.6441 L264.3394,27.6471 C264.3344,23.9091 262.4614,21.4941 258.5734,21.4941 C254.8004,21.4941 252.5774,24.0081 252.5774,27.9191 L252.5774,54.6441 L243.5474,54.6441 L243.5474,27.6471 C243.5474,23.9091 241.6544,21.4941 237.7814,21.4941 C234.2754,21.4941 232.1154,23.6121 231.7844,26.9851 L231.7844,54.6441 L222.7564,54.6441 L222.7564,14.5971 L230.9974,14.5971 L230.9974,17.9481 C232.9804,15.2761 236.0444,13.6361 240.2694,13.6361 C244.7254,13.6361 248.0694,15.3491 250.1394,18.0101 C252.2474,15.3011 255.5434,13.6361 260.1564,13.6361 C268.5724,13.6361 273.3694,19.2751 273.3694,26.1231 L273.3694,54.6441 Z M301.22,43.086 C301.22,40.012 299.004,37.326 294.457,37.326 C290.101,37.326 287.569,40.012 287.569,43.086 C287.569,46.159 290.101,48.813 294.457,48.813 C299.004,48.813 301.22,46.159 301.22,43.086 Z M309.917,28.134 L309.917,54.644 L302.024,54.644 L302.024,51.805 C299.894,54.033 296.716,55.605 292.312,55.605 C283.366,55.605 278.426,50.121 278.426,43.086 C278.426,36.05 283.652,30.567 293.04,30.567 C296.285,30.567 298.867,31.426 300.855,32.774 L300.855,28.24 C300.855,24.181 298.705,21.494 294.728,21.494 C291.041,21.494 288.602,23.664 288.602,27.206 L288.602,27.88 L279.572,27.88 L279.572,27.14 C279.572,19.26 285.568,13.636 294.728,13.636 C304.24,13.636 309.917,19.949 309.917,28.134 Z M347.9963,26.4469 L347.9963,54.6439 L338.9663,54.6439 L338.9663,28.2739 C338.9663,24.1889 336.8103,21.4939 332.4393,21.4939 C328.3233,21.4939 325.9483,24.1479 325.9483,28.2739 L325.9483,54.6439 L316.9193,54.6439 L316.9193,14.5969 L325.1603,14.5969 L325.1603,18.0719 C327.1713,15.3219 330.2933,13.6359 334.6213,13.6359 C343.2733,13.6359 347.9963,19.3999 347.9963,26.4469 Z M153.2532,78.9098 L129.5172,115.3698 L153.1282,115.3698 L153.1282,123.8428 L117.7742,123.8428 L117.7742,116.3138 L141.3192,79.8528 L118.5812,79.8528 L118.5812,71.3798 L153.2532,71.3798 L153.2532,78.9098 Z M165.9817,97.4635 L165.9817,99.2245 L179.7087,99.2245 L179.7087,97.4795 C179.7087,93.6415 177.3327,90.6925 172.7777,90.6925 C168.3477,90.6925 165.9817,93.6415 165.9817,97.4635 Z M189.0607,110.5925 L189.0607,111.0115 C189.0607,118.8275 183.0687,124.8025 172.9837,124.8025 C162.9437,124.8025 156.9517,118.5395 156.9517,110.3215 L156.9517,97.3155 C156.9517,89.1475 162.8627,82.8345 172.7777,82.8345 C182.8627,82.8345 188.7387,89.1475 188.7387,97.3325 L188.7387,106.5005 L165.9817,106.5005 L165.9817,110.1735 C165.9817,114.0455 168.4287,116.9455 172.9837,116.9455 C177.4937,116.9455 180.0757,114.3325 180.0757,110.8975 L180.0757,110.5925 L189.0607,110.5925 Z M215.2503,82.8346 L215.2503,91.5866 L212.5553,91.5866 C207.3213,91.5866 203.7833,94.5776 203.7833,99.9826 L203.7833,123.8426 L194.7543,123.8426 L194.7543,83.7956 L202.9953,83.7956 L202.9953,88.3436 C205.1503,84.9396 208.6883,82.8346 213.7463,82.8346 L215.2503,82.8346 Z M233.4563,90.692 C228.9813,90.692 226.5253,93.642 226.5253,97.463 L226.5253,110.174 C226.5253,113.996 228.9813,116.945 233.4563,116.945 C237.9303,116.945 240.3873,113.996 240.3873,110.174 L240.3873,97.463 C240.3873,93.642 237.9303,90.692 233.4563,90.692 Z M249.4173,97.316 L249.4173,110.322 C249.4173,118.491 243.5023,124.803 233.4563,124.803 C223.4103,124.803 217.4963,118.491 217.4963,110.322 L217.4963,97.316 C217.4963,89.147 223.4103,82.835 233.4563,82.835 C243.5023,82.835 249.4173,89.147 249.4173,97.316 Z" id="logo"></path>
        </g>
    </g>
</svg>